<svg width="48" height="48" viewBox="0 0 48 48" fill="none" xmlns="http://www.w3.org/2000/svg">
<path d="M16.6194 9.24805H8.22656C7.44983 9.24805 6.82031 9.87756 6.82031 10.6543C6.82031 11.431 7.44983 12.0605 8.22656 12.0605H16.6194C17.3958 12.0605 18.0256 11.431 18.0256 10.6543C18.0256 9.87756 17.3958 9.24805 16.6194 9.24805Z" fill="#FF5A30"/>
<path d="M16.6194 14.873H8.22656C7.44983 14.873 6.82031 15.5026 6.82031 16.2793C6.82031 17.056 7.44983 17.6855 8.22656 17.6855H16.6194C17.3958 17.6855 18.0256 17.056 18.0256 16.2793C18.0256 15.5026 17.3958 14.873 16.6194 14.873Z" fill="#FF5A30"/>
<path d="M16.6194 20.498H8.22656C7.44983 20.498 6.82031 21.1276 6.82031 21.9043C6.82031 22.681 7.44983 23.3105 8.22656 23.3105H16.6194C17.3958 23.3105 18.0256 22.681 18.0256 21.9043C18.0256 21.1276 17.3958 20.498 16.6194 20.498Z" fill="#FF5A30"/>
<path d="M16.6194 26.123H8.22656C7.44983 26.123 6.82031 26.7526 6.82031 27.5293C6.82031 28.306 7.44983 28.9355 8.22656 28.9355H16.6194C17.3958 28.9355 18.0256 28.306 18.0256 27.5293C18.0256 26.7526 17.3958 26.123 16.6194 26.123Z" fill="#FF5A30"/>
<path d="M16.6194 31.8438H8.22656C7.44983 31.8438 6.82031 32.4736 6.82031 33.25C6.82031 34.0267 7.44983 34.6562 8.22656 34.6562H16.6194C17.3958 34.6562 18.0256 34.0267 18.0256 33.25C18.0256 32.4736 17.3958 31.8438 16.6194 31.8438Z" fill="#FF5A30"/>
<path d="M21.3438 12.0605H29.7366C30.5133 12.0605 31.1428 11.431 31.1428 10.6543C31.1428 9.87756 30.5133 9.24805 29.7366 9.24805H21.3438C20.5674 9.24805 19.9375 9.87756 19.9375 10.6543C19.9375 11.431 20.5674 12.0605 21.3438 12.0605Z" fill="#FF5A30"/>
<path d="M21.3438 17.6855H29.7366C30.5133 17.6855 31.1428 17.056 31.1428 16.2793C31.1428 15.5026 30.5133 14.873 29.7366 14.873H21.3438C20.5674 14.873 19.9375 15.5026 19.9375 16.2793C19.9375 17.056 20.5674 17.6855 21.3438 17.6855Z" fill="#FF5A30"/>
<path d="M26.7922 21.9043C26.7922 21.1276 26.1627 20.498 25.386 20.498H21.3438C20.5674 20.498 19.9375 21.1276 19.9375 21.9043C19.9375 22.681 20.5674 23.3105 21.3438 23.3105H25.386C26.1627 23.3105 26.7922 22.681 26.7922 21.9043Z" fill="#FF5A30"/>
<path d="M40.1134 32.4364C39.5077 31.9504 38.6229 32.0474 38.1366 32.6532L34.5148 37.1685L32.2724 35.544C31.6437 35.0881 30.764 35.2287 30.3085 35.8575C29.8529 36.4867 29.9935 37.3659 30.6223 37.8215L33.9486 40.2315C34.1976 40.4117 34.4862 40.4992 34.7729 40.4992C35.1857 40.4992 35.5936 40.318 35.8705 39.9726L40.3305 34.4132C40.8165 33.8075 40.7195 32.9223 40.1134 32.4364Z" fill="#FF5A30"/>
<path d="M43.6674 28.1195C41.8356 26.2555 39.4819 25.0807 36.9316 24.7346V5.66345C36.9316 2.54077 34.3909 0 31.2682 0H6.69507C3.57202 0 1.03125 2.54077 1.03125 5.66345V38.239C1.03125 41.3621 3.57202 43.9028 6.6947 43.9028H26.4587C28.6827 46.5154 31.8805 48 35.3401 48C41.7799 48 47.0189 42.7573 47.0189 36.3131C47.0189 33.2281 45.8287 30.3182 43.6674 28.1195ZM3.84375 38.239V5.66345C3.84375 4.09167 5.12292 2.8125 6.69507 2.8125H31.2682C32.8403 2.8125 34.1191 4.09167 34.1191 5.66345V24.6899C28.251 25.3026 23.6613 30.2812 23.6613 36.3131C23.6613 37.9849 24.0099 39.6013 24.6786 41.09H6.69507C5.12292 41.09 3.84375 39.8112 3.84375 38.239ZM35.3401 45.1875C32.5316 45.1875 29.9498 43.8981 28.2561 41.6503C27.0901 40.1023 26.4734 38.257 26.4734 36.3131C26.4734 31.4198 30.4512 27.4387 35.3401 27.4387C35.3862 27.4387 35.4327 27.4395 35.4789 27.4402L35.5005 27.4406C37.8344 27.4819 40.0225 28.4231 41.6616 30.0908C43.3026 31.7604 44.2064 33.9705 44.2064 36.3131C44.2064 41.2064 40.229 45.1875 35.3401 45.1875Z" fill="#FF5A30"/>
</svg>
